<mxfile host="app.diagrams.net" modified="2022-03-30T23:44:51.726Z" agent="5.0 (Windows NT 10.0; Win64; x64) AppleWebKit/537.36 (KHTML, like Gecko) Chrome/99.0.4844.84 Safari/537.36" etag="UluJfAS69aLkRhsMTp-q" version="17.2.4" type="github">
  <diagram id="o0gywsWYpx7bwyFT0RVQ" name="Page-1">
    <mxGraphModel dx="1038" dy="579" grid="1" gridSize="10" guides="1" tooltips="1" connect="1" arrows="1" fold="1" page="1" pageScale="1" pageWidth="1654" pageHeight="2336" math="0" shadow="0">
      <root>
        <mxCell id="0" />
        <mxCell id="1" parent="0" />
        <mxCell id="K3uyfSVjoDwOmG91YsuH-1" value="" style="ellipse;whiteSpace=wrap;html=1;aspect=fixed;" vertex="1" parent="1">
          <mxGeometry x="80" y="220" width="80" height="80" as="geometry" />
        </mxCell>
        <mxCell id="K3uyfSVjoDwOmG91YsuH-7" style="edgeStyle=orthogonalEdgeStyle;rounded=0;orthogonalLoop=1;jettySize=auto;html=1;exitX=1;exitY=0.5;exitDx=0;exitDy=0;fontSize=19;" edge="1" parent="1" source="K3uyfSVjoDwOmG91YsuH-2">
          <mxGeometry relative="1" as="geometry">
            <mxPoint x="250" y="256" as="targetPoint" />
          </mxGeometry>
        </mxCell>
        <mxCell id="K3uyfSVjoDwOmG91YsuH-2" value="" style="shape=image;verticalLabelPosition=bottom;labelBackgroundColor=default;verticalAlign=top;aspect=fixed;imageAspect=0;image=https://upload.wikimedia.org/wikipedia/commons/9/99/Sample_User_Icon.png;" vertex="1" parent="1">
          <mxGeometry x="80" y="215" width="82" height="82" as="geometry" />
        </mxCell>
        <mxCell id="K3uyfSVjoDwOmG91YsuH-3" value="&lt;font style=&quot;font-size: 19px&quot;&gt;User&lt;/font&gt;" style="text;html=1;align=center;verticalAlign=middle;resizable=0;points=[];autosize=1;strokeColor=none;fillColor=none;" vertex="1" parent="1">
          <mxGeometry x="90" y="310" width="60" height="20" as="geometry" />
        </mxCell>
        <mxCell id="K3uyfSVjoDwOmG91YsuH-4" value="" style="endArrow=none;html=1;rounded=0;fontSize=19;" edge="1" parent="1">
          <mxGeometry width="50" height="50" relative="1" as="geometry">
            <mxPoint x="200" y="230" as="sourcePoint" />
            <mxPoint x="200" y="60" as="targetPoint" />
          </mxGeometry>
        </mxCell>
        <mxCell id="K3uyfSVjoDwOmG91YsuH-5" value="" style="ellipse;whiteSpace=wrap;html=1;aspect=fixed;fontSize=19;" vertex="1" parent="1">
          <mxGeometry x="260" y="220" width="80" height="80" as="geometry" />
        </mxCell>
        <mxCell id="K3uyfSVjoDwOmG91YsuH-6" value="" style="endArrow=none;html=1;rounded=0;fontSize=19;" edge="1" parent="1">
          <mxGeometry width="50" height="50" relative="1" as="geometry">
            <mxPoint x="200" y="530" as="sourcePoint" />
            <mxPoint x="200" y="280" as="targetPoint" />
          </mxGeometry>
        </mxCell>
      </root>
    </mxGraphModel>
  </diagram>
</mxfile>
